<svg xmlns="http://www.w3.org/2000/svg" viewBox="0 0 1908 1197"><title>Asset 6</title><g id="Layer_2" data-name="Layer 2"><g id="Layer_1-2" data-name="Layer 1"><rect width="1908" height="92.08"/><rect y="184.15" width="1908" height="92.08"/><rect y="368.31" width="1908" height="92.08"/><ellipse cx="1502.5" cy="996.41" rx="88.22" ry="88.18" transform="translate(-264.5 1354.27) rotate(-45)"/><path d="M0,552.46v92.08H1098v92.08H0v92.07H1098v92.08H0v92.08H1098v92.07H0V1197H1908V552.46Zm1505.42,621.89c-100,1.62-182.3-80.54-180.87-180.54a178.05,178.05,0,0,1,135.67-170.3V781.7l-39,25.23-46.31-71.57,50.8-32.87-50.8-32.86,46.31-71.58,39,25.23V588.69h85.25V625l41.65-27,46.31,71.58-50.79,32.86,50.79,32.87-46.31,71.57L1545.47,780v43.7a178,178,0,0,1-40,350.67Z"/></g></g></svg>